<mxfile host="65bd71144e">
    <diagram id="FX7-0IK1TLWdq-E01eZ2" name="Page-1">
        <mxGraphModel dx="1057" dy="614" grid="1" gridSize="10" guides="1" tooltips="1" connect="1" arrows="1" fold="1" page="1" pageScale="1" pageWidth="850" pageHeight="1100" math="0" shadow="0">
            <root>
                <mxCell id="0"/>
                <mxCell id="1" parent="0"/>
                <mxCell id="3" value="" style="rounded=0;whiteSpace=wrap;html=1;fillColor=#01041D;" vertex="1" parent="1">
                    <mxGeometry x="80" y="200" width="600" height="400" as="geometry"/>
                </mxCell>
                <mxCell id="4" value="" style="rounded=1;whiteSpace=wrap;html=1;fillColor=#1D0803;" vertex="1" parent="1">
                    <mxGeometry x="80" y="370" width="360" height="220" as="geometry"/>
                </mxCell>
            </root>
        </mxGraphModel>
    </diagram>
</mxfile>